<svg id="Layer_1" data-name="Layer 1" xmlns="http://www.w3.org/2000/svg" viewBox="0 0 398.2 398.6"><defs><style>.cls-1{fill:#fff;stroke:#231f20;stroke-miterlimit:10;stroke-width:15px;}</style></defs><path class="cls-1" d="M377.9,266c-3.8-20.6-21.2-36.9-43.1-36.8-62.2.4-124.5.2-186.7.1a40.9,40.9,0,0,0-29.6,12.2,40.2,40.2,0,0,0-12.4,24.9V527.5c.9,4.1,1,8.3,3,12.2,8.5,16.9,22.2,26.1,41.1,26.2,41.1.3,82.1.1,123.1.1a19,19,0,0,0,3.4-.1c3.3-.3,3.9-1.4,2.5-4.4-.4-1-1.1-1.9-1.6-2.9A146.7,146.7,0,0,1,263,523.1c-3.5-13.4-4.2-27.1-3.9-40.8.1-9.1.1-18.2-.1-27.3,0-4.1-.9-4.7-4.8-3.8a37.2,37.2,0,0,1-8.8,1.1H173.9a27.3,27.3,0,0,1-8.1-1,14.6,14.6,0,0,1-9.8-18.7c2.3-6.7,7.6-10.2,15.7-10.2h70c4.6,0,9.2-.3,13.7,1,2.2.7,3.3-.2,3.7-2.3s.8-5,1.5-7.4A48.8,48.8,0,0,1,272,393.4c1.2-1.2,2.9-2.5,2.3-4s-3-1.4-4.7-1.4h-5.3c-31.3,0-62.6.1-93.9,0-8.7,0-15.3-6.4-15.2-14.5s6.6-14.5,15.2-14.6c6.3-.1,12.5,0,18.7,0H312.2c5.4,0,9.8,1.6,13.2,5.8s3.3,4.1,8.1,2.4c13-4.3,26-8.9,39-13.2,6-2,6.3-2.4,6.3-8.8V277.6A64.1,64.1,0,0,0,377.9,266ZM232.7,325.5H171c-9.8-.1-17-6.8-17-16s7.1-16,17-16q30.8-.2,61.7,0c9.8,0,17,6.9,17,16S242.5,325.4,232.7,325.5Z" transform="translate(-98.6 -221.7)"/><path class="cls-1" d="M489.3,485c-.5-19.3-.1-38.7-.1-58,0-8.4-3.8-13.9-11.8-16.6l-81.5-27.8a19.9,19.9,0,0,0-13.2.1L303,409.9c-9.9,3.4-13.4,8.2-13.4,18.4,0,20-.1,40,0,59.9a130.8,130.8,0,0,0,.9,15.3c3.3,25.6,15.3,47.1,32.8,65.7s39,33,62.6,43.6h6.8l5-2.2c21.9-10.5,41.6-24.1,58.2-41.9C477.9,545.2,490,517.7,489.3,485Zm-43.8-13.5-39,52c-2.9,3.8-5.7,7.6-8.6,11.3a15.9,15.9,0,0,1-12.4,6.2c-4.5-.2-8.3-1.6-11.3-4.7-10.7-10.6-21.4-21.2-32-32a15.8,15.8,0,0,1,0-22.5c6.2-6.2,15.9-6.3,22.5,0s10.9,10.6,16.1,16.1c2.2,2.3,3.2,2.6,5.3-.3,11.2-15.2,22.6-30.3,34-45.4,6.7-8.9,18.6-9.4,25.4-1.3C450.5,456.9,450.5,464.7,445.5,471.5Z" transform="translate(-98.6 -221.7)"/></svg>